<svg width="34" height="36" viewBox="0 0 34 36" fill="none" xmlns="http://www.w3.org/2000/svg">
<g id="Group 1">
<ellipse id="Ellipse 2" cx="16.9765" cy="8.42034" rx="8.42034" ry="8.42034" fill="white"/>
<path id="Subtract" fill-rule="evenodd" clip-rule="evenodd" d="M1.28709 29.4516C0.437354 31.5031 0 33.7018 0 35.9223L8.55642 35.9223C8.59291 31.3031 12.3487 27.5698 16.9765 27.5698C21.6043 27.5698 25.3601 31.3031 25.3966 35.9223H33.8172C33.8172 33.7018 33.3798 31.5031 32.5301 29.4516C31.6804 27.4002 30.4349 25.5362 28.8648 23.9661C27.2947 22.396 25.4307 21.1505 23.3792 20.3008C21.3278 19.451 19.1291 19.0137 16.9086 19.0137C14.6881 19.0137 12.4894 19.451 10.438 20.3008C8.38651 21.1505 6.52252 22.396 4.95241 23.9661C3.38231 25.5362 2.13683 27.4002 1.28709 29.4516Z" fill="white"/>
</g>
</svg>
